<svg width="25" height="24" viewBox="0 0 25 24" fill="none" xmlns="http://www.w3.org/2000/svg">
<path d="M21.1573 1.628C21.0825 1.44247 20.9534 1.28347 20.7866 1.17153C20.6199 1.05959 20.4233 0.999847 20.2221 1H4.11432C3.91309 0.999847 3.71644 1.05959 3.54974 1.17153C3.38303 1.28347 3.25392 1.44247 3.17906 1.628L1.16559 6.628C1.11841 6.74643 1.09416 6.87264 1.09412 7V22C1.09412 22.2652 1.20018 22.5196 1.38898 22.7071C1.57778 22.8946 1.83385 23 2.10085 23H22.2355C22.5025 23 22.7586 22.8946 22.9474 22.7071C23.1362 22.5196 23.2423 22.2652 23.2423 22V7C23.2422 6.87264 23.218 6.74643 23.1708 6.628L21.1573 1.628ZM4.79588 3H19.5405L20.7486 6H3.5878L4.79588 3ZM3.10758 21V8H21.2288V21H3.10758Z" fill="white"/>
<path d="M10.155 17H6.12807C5.86107 17 5.605 17.1054 5.4162 17.2929C5.2274 17.4804 5.12134 17.7348 5.12134 18C5.12134 18.2652 5.2274 18.5196 5.4162 18.7071C5.605 18.8947 5.86107 19 6.12807 19H10.155C10.422 19 10.6781 18.8947 10.8669 18.7071C11.0557 18.5196 11.1617 18.2652 11.1617 18C11.1617 17.7348 11.0557 17.4804 10.8669 17.2929C10.6781 17.1054 10.422 17 10.155 17Z" fill="white"/>
</svg>
