<svg width="15" height="17" viewBox="0 0 15 17" fill="none" xmlns="http://www.w3.org/2000/svg">
<path d="M1.36364 0.634335L1.36364 9.51576C0.611591 9.51576 0 10.0848 0 10.7845L0 12.0533C0 12.753 0.611591 13.3221 1.36364 13.3221L1.36364 15.8596C1.36364 16.2098 1.66841 16.494 2.04545 16.494C2.4225 16.494 2.72727 16.2098 2.72727 15.8596V13.3221C3.47932 13.3221 4.09091 12.753 4.09091 12.0533V10.7845C4.09091 10.0848 3.47932 9.51576 2.72727 9.51576L2.72727 0.634335C2.72727 0.284153 2.4225 -5.34058e-05 2.04545 -5.34058e-05C1.66841 -5.34058e-05 1.36364 0.284153 1.36364 0.634335ZM2.72727 12.0533H1.36364L1.36364 10.7845L2.04273 10.7839C2.04409 10.7839 2.04477 10.7845 2.04545 10.7845C2.04614 10.7845 2.04682 10.7839 2.04818 10.7839H2.72727V12.0533Z" fill="#C89C34"/>
<path d="M6.81823 0.634335V4.44066C6.06618 4.44066 5.45459 5.0097 5.45459 5.70943V6.97821C5.45459 7.67794 6.06618 8.24698 6.81823 8.24698V15.8596C6.81823 16.2098 7.123 16.494 7.50004 16.494C7.87709 16.494 8.18186 16.2098 8.18186 15.8596V8.24698C8.93391 8.24698 9.5455 7.67794 9.5455 6.97821V5.70943C9.5455 5.0097 8.93391 4.44066 8.18186 4.44066V0.634335C8.18186 0.284153 7.87709 -5.34058e-05 7.50004 -5.34058e-05C7.123 -5.34058e-05 6.81823 0.284153 6.81823 0.634335ZM8.18186 6.97821H6.81823V5.70943L7.49732 5.7088C7.49868 5.7088 7.49936 5.70943 7.50004 5.70943C7.50073 5.70943 7.50141 5.7088 7.50277 5.7088H8.18186V6.97821Z" fill="#C89C34"/>
<path d="M12.2727 0.634335L12.2727 9.51576C11.5206 9.51576 10.9091 10.0848 10.9091 10.7845V12.0533C10.9091 12.753 11.5206 13.3221 12.2727 13.3221V15.8596C12.2727 16.2098 12.5775 16.494 12.9545 16.494C13.3316 16.494 13.6363 16.2098 13.6363 15.8596V13.3221C14.3884 13.3221 15 12.753 15 12.0533V10.7845C15 10.0848 14.3884 9.51576 13.6363 9.51576V0.634335C13.6363 0.284153 13.3316 -5.34058e-05 12.9545 -5.34058e-05C12.5775 -5.34058e-05 12.2727 0.284153 12.2727 0.634335ZM13.6363 12.0533H12.2727V10.7845L12.9518 10.7839C12.9531 10.7839 12.9538 10.7845 12.9545 10.7845C12.9552 10.7845 12.9559 10.7839 12.9572 10.7839H13.6363V12.0533Z" fill="#C89C34"/>
</svg>
