<svg width="36" height="36" viewBox="0 0 36 36" fill="none" xmlns="http://www.w3.org/2000/svg">
<path d="M17.9279 3C12.178 3 7.5 7.67798 7.5 13.4279C7.5 20.6548 17.9381 33 17.9381 33C17.9381 33 28.3557 20.2994 28.3557 13.4279C28.3557 7.67798 23.6779 3 17.9279 3ZM21.0742 16.4811C20.2066 17.3485 19.0673 17.7823 17.9279 17.7823C16.7886 17.7823 15.6489 17.3485 14.7817 16.4811C13.0468 14.7464 13.0468 11.9236 14.7817 10.1887C15.6218 9.34827 16.7393 8.88538 17.9279 8.88538C19.1164 8.88538 20.2337 9.34845 21.0742 10.1887C22.8091 11.9236 22.8091 14.7464 21.0742 16.4811Z" fill="#FF1515"/>
</svg>
