<svg width="15" height="15" viewBox="0 0 15 15" fill="none" xmlns="http://www.w3.org/2000/svg">
<g clip-path="url(#clip0_1_77)">
<path d="M9.26754 5.73228C9.14567 5.6104 8.94753 5.6104 8.82566 5.73228C8.70378 5.85415 8.70378 6.0529 8.82566 6.17416C9.17942 6.52792 9.37503 6.99854 9.37503 7.49978C9.37503 8.53352 8.53377 9.37478 7.50003 9.37478C6.99879 9.37478 6.52816 9.17978 6.1744 8.82541C6.05253 8.70353 5.85439 8.70353 5.73252 8.82541C5.61064 8.94666 5.61064 9.14541 5.73252 9.26729C6.20376 9.73979 6.83189 9.9998 7.50003 9.9998C8.87877 9.9998 10 8.87855 10 7.49981C10 6.83164 9.74004 6.20351 9.26754 5.73228Z" fill="#808080"/>
<path d="M7.93566 5.0429C7.79377 5.01791 7.64878 4.99977 7.50004 4.99977C6.1213 4.99977 5.00005 6.12102 5.00005 7.49976C5.00005 7.6485 5.01818 7.79352 5.04379 7.93537C5.07065 8.08663 5.20255 8.19351 5.35067 8.19351C5.36881 8.19351 5.38691 8.19225 5.40566 8.1885C5.57503 8.1585 5.68879 7.99599 5.65879 7.82662C5.63942 7.72036 5.62504 7.61226 5.62504 7.49976C5.62504 6.46602 6.4663 5.62476 7.50004 5.62476C7.61254 5.62476 7.72067 5.63915 7.82691 5.6579C7.99317 5.69165 8.15878 5.57414 8.18878 5.40477C8.21878 5.23541 8.10505 5.0729 7.93566 5.0429Z" fill="#808080"/>
<path d="M14.9256 7.29789C14.855 7.21414 13.1644 5.24102 10.8325 4.03291C10.6812 3.95355 10.4906 4.01355 10.4112 4.1673C10.3319 4.32043 10.3919 4.50916 10.5456 4.58855C12.3419 5.51855 13.7769 6.9698 14.2675 7.49981C13.5225 8.30667 10.5906 11.2498 7.50001 11.2498C6.45127 11.2498 5.39439 10.9967 4.35751 10.4967C4.20376 10.4211 4.01565 10.4867 3.94065 10.6423C3.86503 10.7973 3.93066 10.9842 4.08628 11.0592C5.20815 11.601 6.3569 11.8748 7.50004 11.8748C11.3507 11.8748 14.7819 7.87229 14.9263 7.70166C15.025 7.58538 15.0244 7.41476 14.9256 7.29789Z" fill="#808080"/>
<path d="M9.55064 3.48477C8.83941 3.24539 8.14941 3.12477 7.50001 3.12477C3.64939 3.12477 0.218142 7.12727 0.0737673 7.2979C-0.0174923 7.40539 -0.0249923 7.56166 0.0562771 7.67852C0.099402 7.7404 1.13253 9.20726 2.92315 10.3967C2.97626 10.4323 3.03565 10.4492 3.09565 10.4492C3.19628 10.4492 3.29566 10.4004 3.35566 10.3085C3.45128 10.1654 3.41191 9.97103 3.26815 9.87602C1.95316 9.00165 1.05316 7.94603 0.716276 7.51666C1.43566 6.7354 4.3869 3.74979 7.50001 3.74979C8.08188 3.74979 8.70502 3.8598 9.35125 4.07665C9.51499 4.13539 9.6925 4.04478 9.74687 3.88039C9.80189 3.71665 9.71438 3.53979 9.55064 3.48477Z" fill="#808080"/>
<path d="M13.0331 1.96663C12.9112 1.84476 12.7131 1.84476 12.5912 1.96663L1.96627 12.5916C1.84439 12.7135 1.84439 12.9116 1.96627 13.0335C2.02753 13.0941 2.10751 13.1248 2.18752 13.1248C2.26753 13.1248 2.34751 13.0942 2.40815 13.0335L13.0331 2.40852C13.155 2.28664 13.155 2.08851 13.0331 1.96663Z" fill="#808080"/>
</g>
<defs>
<clipPath id="clip0_1_77">
<rect width="15" height="15" fill="white"/>
</clipPath>
</defs>
</svg>
